<svg width="16" height="16" viewBox="0 0 16 16" fill="none" xmlns="http://www.w3.org/2000/svg">
<g clip-path="url(#clip0_906702_671)">
<path d="M15.996 16V15.9993H16V10.1313C16 7.26065 15.382 5.04932 12.026 5.04932C10.4127 5.04932 9.33003 5.93465 8.88803 6.77398H8.84137V5.31732H5.65936V15.9993H8.9727V10.71C8.9727 9.31732 9.2367 7.97065 10.9614 7.97065C12.6607 7.97065 12.686 9.55998 12.686 10.7993V16H15.996Z" fill="#F4F4FD"/>
<path d="M0.264038 5.31793H3.58137V15.9999H0.264038V5.31793Z" fill="#F4F4FD"/>
<path d="M1.92136 -6.10352e-05C0.860697 -6.10352e-05 3.05176e-05 0.860606 3.05176e-05 1.92127C3.05176e-05 2.98194 0.860697 3.86061 1.92136 3.86061C2.98203 3.86061 3.8427 2.98194 3.8427 1.92127C3.84203 0.860606 2.98136 -6.10352e-05 1.92136 -6.10352e-05V-6.10352e-05Z" fill="#F4F4FD"/>
</g>
<defs>
<clipPath id="clip0_906702_671">
<rect width="16" height="16" fill="white"/>
</clipPath>
</defs>
</svg>
