<svg width="16" height="14" viewBox="0 0 16 14" fill="none" xmlns="http://www.w3.org/2000/svg">
<path d="M16 2.03894C15.405 2.29994 14.771 2.47294 14.11 2.55694C14.79 2.15094 15.309 1.51294 15.553 0.743939C14.919 1.12194 14.219 1.38894 13.473 1.53794C12.871 0.896939 12.013 0.499939 11.077 0.499939C9.261 0.499939 7.799 1.97394 7.799 3.78094C7.799 4.04094 7.821 4.29094 7.875 4.52894C5.148 4.39594 2.735 3.08894 1.114 1.09794C0.831 1.58894 0.665 2.15094 0.665 2.75594C0.665 3.89194 1.25 4.89894 2.122 5.48194C1.595 5.47194 1.078 5.31894 0.64 5.07794C0.64 5.08794 0.64 5.10094 0.64 5.11394C0.64 6.70794 1.777 8.03194 3.268 8.33694C3.001 8.40994 2.71 8.44494 2.408 8.44494C2.198 8.44494 1.986 8.43294 1.787 8.38894C2.212 9.68794 3.418 10.6429 4.852 10.6739C3.736 11.5469 2.319 12.0729 0.785 12.0729C0.516 12.0729 0.258 12.0609 0 12.0279C1.453 12.9649 3.175 13.4999 5.032 13.4999C11.068 13.4999 14.368 8.49994 14.368 4.16594C14.368 4.02094 14.363 3.88094 14.356 3.74194C15.007 3.27994 15.554 2.70294 16 2.03894Z" fill="#F4F4FD"/>
</svg>
